<svg xmlns="http://www.w3.org/2000/svg" viewBox="0 0 160.97 136.79"><defs><style>.cls-1{fill:#6f7a7e;stroke:#404349;}.cls-1,.cls-2,.cls-3{stroke-miterlimit:10;stroke-width:4px;}.cls-2{fill:#a7b7bd;stroke:#464d4f;}.cls-3{fill:#7f8691;stroke:#444c57;}</style></defs><g id="Layer_2" data-name="Layer 2"><g id="FINAL"><g id="Cloudly"><path id="oblak_5" class="cls-1" d="M139,55c0-.41.07-.83.07-1.26a15.7,15.7,0,0,0-26.55-11.36A24.64,24.64,0,0,0,88,20.4a25.31,25.31,0,0,0-5.11.53A24.63,24.63,0,0,0,34.3,26.64c0,4.81,2.7,12,6.93,15C33.66,43.07,23.37,51,26.55,62.94,14.21,62.75,2,70.71,2,83.35,2,97,12.36,103.91,26,103.82c6.61,0,108.73,0,108.73,0A24.63,24.63,0,0,0,139,55Z"/><path id="oblak_3" class="cls-2" d="M50.25,109.49a11.27,11.27,0,0,0-20.67-8.87,9.36,9.36,0,0,0-4.67-1.24,9.47,9.47,0,0,0-9.47,9.48,7.87,7.87,0,0,0,0,.84A12.95,12.95,0,0,0,20,134.79H46.73A12.82,12.82,0,0,0,59.3,121.13,13.06,13.06,0,0,0,50.25,109.49Z"/><path id="oblak_1" class="cls-3" d="M142,96.59a11.24,11.24,0,0,0,.25-2.4,11.63,11.63,0,0,0-17.67-10,19.15,19.15,0,0,0-37.07-6,17.12,17.12,0,0,0-25.45,15,17.3,17.3,0,0,0,.32,3.25H55.5a19.17,19.17,0,0,0,0,38.34c5.15,0,84.59,0,84.59,0A19.16,19.16,0,0,0,142,96.59Z"/></g></g></g></svg>